<svg viewBox="0 0 32 32" xmlns="http://www.w3.org/2000/svg" xmlns:xlink="http://www.w3.org/1999/xlink" width="32.000000" height="32.000000" fill="none">
	<rect id="Frame" width="32.000000" height="32.000000" x="0.000000" y="0.000000" fill="rgb(255,255,255)" fill-opacity="0" />
	<path id="Vector" d="M25.3333 12L25.3333 7.99998C25.3333 7.29274 25.0524 6.61446 24.5523 6.11436C24.0522 5.61426 23.3739 5.33331 22.6667 5.33331L9.33332 5.33331C8.62608 5.33331 7.9478 5.61426 7.4477 6.11436C6.94761 6.61446 6.66666 7.29274 6.66666 7.99998L6.66666 12" fill-rule="nonzero" stroke="rgb(131,135,143)" stroke-linecap="round" stroke-linejoin="round" stroke-width="2.66666675" />
	<path id="Vector" d="M4.78105 23.219C5.28115 23.719 5.95942 24 6.66667 24L25.3333 24C26.0406 24 26.7189 23.719 27.219 23.219C27.719 22.7189 28 22.0406 28 21.3333L28 14.6667C28 13.9594 27.719 13.2811 27.219 12.781C26.7189 12.281 26.0406 12 25.3333 12C24.6261 12 23.9478 12.281 23.4477 12.781C22.9476 13.2811 22.6667 13.9594 22.6667 14.6667L22.6667 16.6667C22.6667 16.8435 22.5964 17.013 22.4714 17.1381C22.3464 17.2631 22.1768 17.3333 22 17.3333L10 17.3333C9.82319 17.3333 9.65362 17.2631 9.5286 17.1381C9.40357 17.013 9.33333 16.8435 9.33333 16.6667L9.33333 14.6667C9.33333 13.9594 9.05238 13.2811 8.55229 12.781C8.05219 12.281 7.37391 12 6.66667 12C5.95942 12 5.28115 12.281 4.78105 12.781C4.28095 13.2811 4 13.9594 4 14.6667L4 21.3333C4 22.0406 4.28095 22.7189 4.78105 23.219Z" fill-rule="nonzero" stroke="rgb(131,135,143)" stroke-linecap="round" stroke-linejoin="round" stroke-width="2.66666675" />
	<path id="Vector" d="M0 0L2.66667 0" stroke="rgb(131,135,143)" stroke-linecap="round" stroke-linejoin="round" stroke-width="2.66666675" transform="matrix(0,1,-1,0,6.66666,24)" />
	<path id="Vector" d="M0 0L2.66667 0" stroke="rgb(131,135,143)" stroke-linecap="round" stroke-linejoin="round" stroke-width="2.66666675" transform="matrix(0,1,-1,0,25.3333,24)" />
</svg>
